<?xml version="1.0" ?><svg id="Layer_1_1_" style="enable-background:new 0 0 128 128;" version="1.1" viewBox="0 0 128 128" xml:space="preserve" xmlns="http://www.w3.org/2000/svg" xmlns:xlink="http://www.w3.org/1999/xlink"><g><path d="M42,90c4.411,0,8-3.589,8-8s-3.589-8-8-8s-8,3.589-8,8S37.589,90,42,90z M42,76c3.309,0,6,2.691,6,6s-2.691,6-6,6   s-6-2.691-6-6S38.691,76,42,76z"/><path d="M42,22c-3.86,0-7,3.14-7,7s3.14,7,7,7s7-3.14,7-7S45.86,22,42,22z M43,33.899V28h-2v5.899c-2.279-0.465-4-2.484-4-4.899   c0-2.757,2.243-5,5-5s5,2.243,5,5C47,31.414,45.279,33.434,43,33.899z"/><path d="M124,1H80h-4H4C2.346,1,1,2.346,1,4v4c0,1.654,1.346,3,3,3h1v116h120V10.816c1.161-0.414,2-1.514,2-2.816V4   C127,2.346,125.654,1,124,1z M3,8V4c0-0.551,0.449-1,1-1h72h4c0.551,0,1,0.449,1,1v4c0,0.551-0.449,1-1,1h-4H4C3.449,9,3,8.551,3,8   z M7,11h69h1v114H7V11z M79,125V11h1h43v11.426l-9.52,5.553c-1.53,0.893-2.48,2.547-2.48,4.319v67.405   c0,1.771,0.951,3.426,2.48,4.319l9.52,5.553V125H79z M123,27.056l-8,4.667V65h2V32.872l2-1.167V65h2V30.538l2-1.167v73.256   l-2-1.167V67h-2v33.295l-2-1.167V67h-2v33.277l8,4.667v2.315l-8.512-4.965c-0.918-0.536-1.488-1.528-1.488-2.591V32.297   c0-1.063,0.57-2.056,1.488-2.591L123,24.741V27.056z M125,8c0,0.551-0.449,1-1,1H82.816C82.928,8.686,83,8.352,83,8V4   c0-0.352-0.072-0.686-0.184-1H124c0.551,0,1,0.449,1,1V8z"/><path d="M50.516,22.039l-1.548,1.267C50.278,24.907,51,26.93,51,29c0,4.962-4.038,9-9,9c-2.07,0-4.093-0.722-5.694-2.032   l-1.267,1.548C36.997,39.118,39.469,40,42,40c6.065,0,11-4.935,11-11C53,26.469,52.118,23.997,50.516,22.039z"/><path d="M42,20c2.07,0,4.093,0.722,5.694,2.032l1.267-1.548C47.003,18.882,44.531,18,42,18c-6.065,0-11,4.935-11,11   c0,2.531,0.882,5.003,2.484,6.961l1.548-1.267C33.722,33.093,33,31.07,33,29C33,24.038,37.038,20,42,20z"/><path d="M42,14c-5.743,0-10.737,3.248-13.256,8H11v12h16.871c1.193,3.335,3.556,6.2,6.693,8H11v80h62V42H49.437   c3.136-1.8,5.499-4.665,6.693-8H73V22H55.256C52.737,17.248,47.743,14,42,14z M13,32v-8h14.875C27.319,25.567,27,27.245,27,29   c0,1.018,0.107,2.022,0.31,3H13z M35,44v6.586l-10,10V69H13V44H35z M13,88h12v4h2v-4h2v11.414l10,10V120h-2v-8.414l-10-10V94h-2   v8.414l10,10V120H13V88z M43,120h-2v-11.414l-10-10v-9.685C33.357,92.651,37.511,95,42,95s8.643-2.349,11-6.099v9.685l-10,10V120z    M49,120v-7.586l10-10V95h12v25H49z M71,76H59V60.586l-10-10V44h22V76z M47.57,40.732L47,41.003v10.411l10,10V76h-2V63.586l-10-10   V42h-2v12.414l10,10v10.685C50.643,71.349,46.489,69,42,69s-8.643,2.349-11,6.099V64.414l10-10V42h-2v11.586l-10,10V76h-2.586l-3-3   H19v2h3.586l3,3h6.157l0.268-0.583C33.802,73.519,37.724,71,42,71s8.198,2.519,9.99,6.417L52.257,78H71v7h-7.586l-3-3H52v2h7.586   l3,3H71v2h-4v2h4v2H57v8.586l-10,10V120h-2v-10.586l10-10V88h2.586l3,3H65v-2h-3.586l-3-3h-6.157l-0.268,0.583   C50.198,90.481,46.276,93,42,93s-8.198-2.519-9.99-6.417L31.743,86H13v-7h7.586l3,3H32v-2h-7.586l-3-3H13v-2h4v-2h-4v-2h14v-9.586   l10-10V41.003l-0.57-0.271C31.917,38.584,29,33.979,29,29c0-7.168,5.832-13,13-13s13,5.832,13,13   C55,33.979,52.083,38.584,47.57,40.732z M71,24v8H56.69c0.203-0.978,0.31-1.982,0.31-3c0-1.755-0.319-3.433-0.875-5H71z"/><path d="M65,110h-3c-2.206,0-4,1.794-4,4s1.794,4,4,4h3c2.206,0,4-1.794,4-4S67.206,110,65,110z M60,114c0-1.103,0.897-2,2-2   s2,0.897,2,2s-0.897,2-2,2S60,115.103,60,114z M65.479,115.936C65.801,115.359,66,114.706,66,114s-0.199-1.359-0.521-1.936   C66.35,112.28,67,113.063,67,114S66.35,115.72,65.479,115.936z"/><path d="M22,110h-3c-2.206,0-4,1.794-4,4s1.794,4,4,4h3c2.206,0,4-1.794,4-4S24.206,110,22,110z M17,114c0-1.103,0.897-2,2-2   s2,0.897,2,2s-0.897,2-2,2S17,115.103,17,114z M22.479,115.936C22.801,115.359,23,114.706,23,114s-0.199-1.359-0.521-1.936   C23.35,112.28,24,113.063,24,114S23.35,115.72,22.479,115.936z"/><rect height="2" width="2" x="15" y="46"/><rect height="2" width="2" x="19" y="46"/><rect height="2" width="2" x="23" y="46"/><rect height="2" width="2" x="15" y="82"/><rect height="2" width="2" x="19" y="82"/><rect height="2" width="2" x="63" y="80"/><rect height="2" width="2" x="67" y="80"/><rect height="2" width="2" x="59" y="46"/><rect height="2" width="2" x="63" y="46"/><rect height="2" width="2" x="67" y="46"/><path d="M42,86c2.206,0,4-1.794,4-4s-1.794-4-4-4s-4,1.794-4,4S39.794,86,42,86z M42,80c1.103,0,2,0.897,2,2s-0.897,2-2,2   s-2-0.897-2-2S40.897,80,42,80z"/></g></svg>