<svg width="35" height="35" viewBox="0 0 35 35" fill="none" xmlns="http://www.w3.org/2000/svg">
<path d="M0 17.5C0 20.9612 1.02636 24.3446 2.94928 27.2225C4.87221 30.1003 7.60533 32.3433 10.803 33.6679C14.0007 34.9924 17.5194 35.339 20.9141 34.6637C24.3087 33.9885 27.4269 32.3218 29.8744 29.8744C32.3218 27.4269 33.9885 24.3087 34.6637 20.9141C35.339 17.5194 34.9924 14.0007 33.6679 10.803C32.3433 7.60533 30.1003 4.87221 27.2225 2.94928C24.3446 1.02636 20.9612 0 17.5 0C12.8587 0 8.40752 1.84374 5.12563 5.12563C1.84374 8.40752 0 12.8587 0 17.5Z" fill="#888888"/>
<path d="M18.5554 21.2406C19.1023 21.1914 20.1687 20.1906 20.7429 20.1469C21.2865 20.0979 21.8288 20.254 22.2632 20.5844L23.7289 21.6781L24.6093 22.3781C24.7584 22.49 24.8831 22.631 24.9761 22.7924C25.0691 22.9539 25.1284 23.1326 25.1504 23.3177C25.1724 23.5027 25.1566 23.6903 25.104 23.8691C25.0514 24.0479 24.9631 24.2141 24.8445 24.3578L23.1437 26.5453C23.0801 26.6278 22.9964 26.6926 22.9007 26.7338C22.8051 26.7749 22.7005 26.791 22.5968 26.7805C15.214 26.1187 9.34058 20.0758 9.34058 12.7367C9.34058 11.4412 9.52471 10.1523 9.88745 8.90859C9.90678 8.84682 9.94236 8.79139 9.99046 8.74809C10.0386 8.70479 10.0974 8.67523 10.1609 8.66249L13.3929 8.20859C13.7641 8.12879 14.1518 8.19899 14.4714 8.40388C14.791 8.60877 15.0167 8.93174 15.0992 9.30234L15.3124 10.3906L15.6679 12.1734C15.7736 12.6986 15.6695 13.2443 15.3781 13.6937C15.0828 14.1531 13.6882 14.6125 13.3874 15.0773C14.2137 17.7634 16.0725 20.0117 18.5554 21.3281V21.2406Z" stroke="#1F0032" stroke-width="2" stroke-linecap="round" stroke-linejoin="round"/>
</svg>
