<svg xmlns="http://www.w3.org/2000/svg" enable-background="new 0 0 48 48" viewBox="0 0 48 48" id="cpu"><rect width="4" height="5" x="13" y="4" fill="#5e5e5e"></rect><polygon fill="#919191" points="16.5 4 13 4 13 7.5"></polygon><rect width="4" height="5" x="31" y="4" fill="#5e5e5e"></rect><polygon fill="#919191" points="34.5 4 31 4 31 7.5"></polygon><rect width="12" height="4" x="18" y="41" fill="#ccc" transform="rotate(180 24 43)"></rect><polygon fill="#efefef" points="18 41 26.001 41 22 45 18 45"></polygon><rect width="30" height="30" x="9" y="7" fill="#ccc" transform="rotate(-180 24 22)"></rect><polygon fill="#efefef" points="9 37 39 7 9 7"></polygon><circle cx="24" cy="22" r="15" fill="#5e5e5e"></circle><path fill="#919191" d="M13.393,32.607l21.213-21.213C31.892,8.679,28.142,7,24,7C15.716,7,9,13.716,9,22
	C9,26.142,10.679,29.892,13.393,32.607z"></path><path fill="#ccc" d="M24,11c-3.038,0-5.788,1.231-7.778,3.222c1.562-1.562,4.095-1.562,5.657,0c1.562,1.562,1.562,4.095,0,5.657
	L24,19c2.209,0,4-1.791,4-4C28,12.791,26.209,11,24,11z"></path><path fill="#ccc" d="M31.778,14.222C29.63,12.074,26.815,11,24,11c2.209,0,4,1.791,4,4c0,2.209-1.791,4-4,4l2.121,0.879
	c1.562,1.562,4.095,1.562,5.657,0C33.34,18.317,33.34,15.784,31.778,14.222z"></path><path fill="#ccc" d="M35,22c0-3.038-1.231-5.788-3.222-7.778c1.562,1.562,1.562,4.095,0,5.657c-1.562,1.562-4.095,1.562-5.657,0
	L27,22c0,2.209,1.791,4,4,4C33.209,26,35,24.209,35,22z"></path><path fill="#ccc" d="M31.778,29.778C33.926,27.63,35,24.815,35,22c0,2.209-1.791,4-4,4c-2.209,0-4-1.791-4-4l-0.879,2.121
	c-1.562,1.562-1.562,4.095,0,5.657C27.683,31.34,30.216,31.34,31.778,29.778z"></path><path fill="#ccc" d="M24,33c3.038,0,5.788-1.231,7.778-3.222c-1.562,1.562-4.095,1.562-5.657,0c-1.562-1.562-1.562-4.095,0-5.657
	L24,25c-2.209,0-4,1.791-4,4C20,31.209,21.791,33,24,33z"></path><path fill="#ccc" d="M16.222,29.778C18.37,31.926,21.185,33,24,33c-2.209,0-4-1.791-4-4c0-2.209,1.791-4,4-4l-2.121-0.879
	c-1.562-1.562-4.095-1.562-5.657,0C14.66,25.683,14.66,28.216,16.222,29.778z"></path><path fill="#ccc" d="M13,22c0,3.038,1.231,5.788,3.222,7.778c-1.562-1.562-1.562-4.095,0-5.657c1.562-1.562,4.095-1.562,5.657,0
	L21,22c0-2.209-1.791-4-4-4C14.791,18,13,19.791,13,22z"></path><path fill="#ccc" d="M16.222,14.222C14.074,16.37,13,19.185,13,22c0-2.209,1.791-4,4-4c2.209,0,4,1.791,4,4l0.879-2.121
	c1.562-1.562,1.562-4.095,0-5.657C20.317,12.66,17.784,12.66,16.222,14.222z"></path><path fill="#efefef" d="M24,19l2.121,0.879c0.275,0.275,0.586,0.483,0.91,0.661c1.813-1.813,3.769-3.769,5.408-5.408
	c-0.178-0.324-0.387-0.635-0.661-0.91C29.63,12.074,26.815,11,24,11c2.209,0,4,1.791,4,4C28,17.209,26.209,19,24,19z"></path><path fill="#efefef" d="M24,11c-3.038,0-5.788,1.231-7.778,3.222c1.562-1.562,4.095-1.562,5.657,0c0.691,0.691,1.058,1.573,1.138,2.476
	c1.509-1.509,2.997-2.997,4.135-4.135C26.42,11.618,25.287,11,24,11z"></path><path fill="#efefef" d="M17,18l4.273-4.273c-1.555-1.042-3.678-0.879-5.051,0.495C14.074,16.37,13,19.185,13,22
	C13,19.791,14.791,18,17,18z"></path><path fill="#efefef" d="M17 18c-2.209 0-4 1.791-4 4 0 .92.125 1.808.338 2.662l5.943-5.943C18.633 18.268 17.849 18 17 18zM16.222 24.121c-1.288 1.288-1.496 3.227-.661 4.747l5.408-5.408C19.449 22.625 17.509 22.834 16.222 24.121zM26.121 24.121L24 25c-2.209 0-4 1.791-4 4 0 .922.325 1.76.849 2.437l4.135-4.135C24.883 26.164 25.25 24.992 26.121 24.121z"></path><path fill="#efefef" d="M31,26c-2.209,0-4-1.791-4-4l-0.879,2.121c-1.562,1.562-1.562,4.095,0,5.657
	c0.188,0.188,0.392,0.352,0.606,0.495C28.168,28.832,29.747,27.253,31,26z"></path><path fill="#efefef" d="M31.778,14.222c1.562,1.562,1.562,4.095,0,5.657c-1.562,1.562-4.095,1.562-5.657,0L27,22
	c0,1.324,0.651,2.488,1.641,3.216c1.998-1.998,4.228-4.228,5.992-5.992C34.133,17.304,33.139,15.583,31.778,14.222z"></path><circle cx="24" cy="22" r="3" fill="#5e5e5e"></circle><path fill="#919191" d="M26.121,19.879C25.578,19.336,24.828,19,24,19c-1.657,0-3,1.343-3,3c0,0.828,0.336,1.578,0.879,2.121
	L26.121,19.879z"></path><path fill="#474747" d="M39,6h-3V4c0-0.552-0.448-1-1-1h-4c-0.552,0-1,0.448-1,1v2H18V4c0-0.552-0.448-1-1-1h-4c-0.552,0-1,0.448-1,1
	v2H9C8.448,6,8,6.448,8,7v30c0,0.552,0.448,1,1,1h4v1c0,2.414,1.721,4.434,4,4.899V45c0,0.552,0.448,1,1,1h12c0.552,0,1-0.448,1-1
	v-1.101c2.279-0.465,4-2.484,4-4.899v-1h4c0.552,0,1-0.448,1-1V7C40,6.448,39.552,6,39,6z M32,5h2v1h-2V5z M14,5h2v1h-2V5z M10,8
	h6.271C13.635,9.461,11.46,11.648,10,14.286V8z M10,36v-6.278c1.46,2.636,3.638,4.817,6.273,6.278H10z M29,44H19v-2h10V44z M33,39
	c0,1.302-0.839,2.402-2,2.816V41c0-0.552-0.448-1-1-1H18c-0.552,0-1,0.448-1,1v0.816c-1.161-0.414-2-1.514-2-2.816v-1h18V39z M38,36
	h-6.279c2.639-1.461,4.818-3.645,6.279-6.285V36z M24,36c-7.72,0-14-6.28-14-14S16.28,8,24,8s14,6.28,14,14S31.72,36,24,36z
	 M38,14.283c-1.461-2.64-3.642-4.822-6.282-6.283H38V14.283z M24,10c-6.617,0-12,5.383-12,12s5.383,12,12,12s12-5.383,12-12
	S30.617,10,24,10z M28.642,13.151c0.924,0.487,1.762,1.111,2.488,1.85c1.104,1.174,1.088,3.023-0.059,4.171
	c-0.567,0.567-1.32,0.879-2.122,0.879c-0.801,0-1.554-0.312-2.121-0.879c-0.005-0.005-0.012-0.007-0.017-0.012
	c-0.005-0.005-0.012-0.009-0.018-0.014c0.263-0.178,0.512-0.38,0.742-0.61C28.48,17.591,29,16.336,29,15
	C29,14.346,28.871,13.723,28.642,13.151z M24,12c0.002,0,0.004,0,0.006,0C25.658,12.003,27,13.348,27,15
	c0,0.802-0.312,1.555-0.879,2.122C25.555,17.688,24.802,18,24,18c-0.001,0-0.002,0-0.002,0c-0.014,0-0.027,0.004-0.04,0.004
	c0.06-0.311,0.093-0.63,0.093-0.954c0-1.336-0.52-2.591-1.465-3.536c-0.465-0.465-1-0.816-1.571-1.059C21.958,12.16,22.96,12,24,12z
	 M26,22c0,1.103-0.897,2-2,2s-2-0.897-2-2s0.897-2,2-2S26,20.897,26,22z M17.001,14.87c1.174-1.104,3.023-1.088,4.171,0.059
	c0.567,0.567,0.879,1.32,0.879,2.122c0,0.801-0.312,1.554-0.879,2.121c-0.005,0.005-0.007,0.012-0.012,0.017
	c-0.005,0.005-0.009,0.012-0.014,0.018c-0.178-0.263-0.38-0.512-0.61-0.742C19.591,17.52,18.336,17,17,17
	c-0.653,0-1.277,0.128-1.849,0.357C15.637,16.434,16.262,15.595,17.001,14.87z M15.515,23.415c-0.465,0.465-0.816,1-1.059,1.571
	C14.16,24.042,14,23.04,14,22c0-0.002,0-0.004,0-0.006C14.003,20.342,15.348,19,17,19c0.802,0,1.555,0.312,2.122,0.879
	C19.688,20.445,20,21.198,20,22c0,0.001,0,0.002,0,0.002c0,0.014,0.004,0.027,0.004,0.04c-0.311-0.06-0.63-0.093-0.954-0.093
	C17.714,21.95,16.459,22.47,15.515,23.415z M19.358,30.849c-0.924-0.487-1.762-1.111-2.488-1.85
	c-1.104-1.174-1.088-3.023,0.059-4.171c0.567-0.567,1.32-0.879,2.122-0.879c0.801,0,1.554,0.312,2.121,0.879
	c0.005,0.005,0.012,0.007,0.017,0.012c0.005,0.005,0.012,0.009,0.018,0.014c-0.263,0.178-0.512,0.38-0.742,0.61
	C19.52,26.409,19,27.664,19,29C19,29.654,19.129,30.277,19.358,30.849z M24,32c-0.002,0-0.004,0-0.006,0
	C22.342,31.997,21,30.652,21,29c0-0.802,0.312-1.555,0.879-2.122C22.445,26.312,23.198,26,24,26c0.001,0,0.002,0,0.002,0
	c0.014,0,0.027-0.004,0.04-0.004c-0.06,0.311-0.093,0.63-0.093,0.954c0,1.336,0.52,2.591,1.465,3.536
	c0.465,0.465,1,0.816,1.571,1.059C26.042,31.84,25.04,32,24,32z M31,29.13c-1.174,1.104-3.023,1.088-4.171-0.059
	c-0.567-0.567-0.879-1.32-0.879-2.122c0-0.801,0.312-1.554,0.879-2.121c0.005-0.005,0.007-0.012,0.012-0.017
	c0.005-0.005,0.009-0.012,0.014-0.018c0.178,0.263,0.38,0.512,0.61,0.742C28.409,26.48,29.665,27,31,27
	c0.653,0,1.276-0.128,1.849-0.357C32.363,27.566,31.738,28.405,31,29.13z M33.544,19.014C33.84,19.958,34,20.96,34,22
	c0,0.002,0,0.004,0,0.006C33.997,23.658,32.652,25,31,25c-0.802,0-1.555-0.312-2.122-0.879C28.312,23.555,28,22.802,28,22
	C28,21.999,28,21.998,28,21.997c0-0.014-0.004-0.026-0.004-0.04c0.311,0.06,0.63,0.093,0.954,0.093c1.336,0,2.591-0.52,3.536-1.465
	C32.95,20.121,33.301,19.585,33.544,19.014z"></path></svg>