<?xml version="1.0" standalone="no"?>
<!DOCTYPE svg PUBLIC "-//W3C//DTD SVG 20010904//EN"
 "http://www.w3.org/TR/2001/REC-SVG-20010904/DTD/svg10.dtd">
<svg version="1.0" xmlns="http://www.w3.org/2000/svg"
 width="170.000000pt" height="170.000000pt" viewBox="0 0 170.000000 170.000000"
 preserveAspectRatio="xMidYMid meet">

<g transform="translate(0.000000,170.000000) scale(0.100000,-0.100000)"
fill="#000000" stroke="none">
<path d="M842 1575 c11 -14 18 -43 21 -90 l3 -70 2 76 c1 43 7 81 15 89 10 12
9 12 -5 1 -15 -11 -21 -11 -35 0 -17 13 -17 13 -1 -6z"/>
<path d="M959 1504 c-1 -5 0 -26 1 -46 1 -22 -3 -38 -9 -38 -6 0 -11 -8 -11
-17 0 -15 2 -16 10 -3 8 12 10 10 11 -10 2 -50 -3 -95 -12 -105 -12 -12 -12
-52 1 -60 6 -3 10 -28 10 -56 0 -27 -4 -49 -10 -49 -5 0 -10 8 -11 18 0 14 -2
14 -9 -3 -6 -16 -9 -10 -12 25 l-5 45 -1 -42 c-1 -24 -6 -43 -12 -43 -6 0 -11
40 -12 98 l-2 97 -6 -100 -6 -100 -3 130 c-2 72 -4 138 -4 148 0 9 -3 17 -6
17 -4 0 -5 -65 -3 -145 3 -103 1 -145 -7 -145 -6 0 -11 8 -12 18 0 14 -2 14
-8 -3 l-8 -20 -5 20 c-5 16 -6 17 -7 3 0 -10 -5 -18 -11 -18 -14 0 -13 93 1
107 6 6 9 21 6 34 -4 22 -4 22 -6 -3 0 -16 -7 -28 -13 -28 -9 0 -13 -17 -12
-57 l2 -58 -7 50 c-9 55 -14 51 -11 -7 1 -23 -3 -38 -10 -38 -8 0 -11 24 -8
80 2 44 0 80 -4 80 -4 0 -9 -37 -11 -82 l-3 -83 -2 83 c-1 45 -5 82 -9 82 -5
0 -7 -36 -5 -80 2 -52 0 -80 -7 -80 -7 0 -12 34 -13 93 l-2 92 -5 -95 c-3 -52
-9 -86 -12 -75 -6 17 -7 17 -8 3 0 -10 -5 -18 -11 -18 -5 0 -10 8 -11 18 0 14
-2 14 -9 -3 -8 -17 -9 -16 -11 10 -1 25 -2 26 -6 7 -6 -32 -41 -65 -63 -59
-10 2 -24 1 -31 -4 -9 -6 -1 -9 26 -10 32 0 36 -2 20 -9 -17 -7 -17 -9 -2 -9
9 -1 17 -5 17 -11 0 -5 -8 -10 -17 -11 -15 0 -15 -2 2 -8 l20 -8 -20 -5 c-16
-5 -17 -6 -2 -7 28 -2 19 -21 -10 -21 -16 -1 -50 -3 -77 -5 -37 -4 -55 0 -70
13 -21 17 -21 17 -2 -5 17 -21 25 -22 100 -18 53 3 74 2 61 -4 -17 -8 -18 -10
-2 -10 9 -1 17 -5 17 -11 0 -6 -34 -11 -77 -12 l-78 -2 80 -6 c52 -4 64 -7 36
-8 -24 -1 -41 -5 -37 -9 4 -4 23 -6 42 -4 19 1 34 -2 34 -8 0 -7 -32 -11 -88
-11 -81 0 -90 2 -112 25 -20 21 -32 25 -74 23 l-51 -2 51 -3 c39 -3 57 -10 74
-28 21 -23 32 -25 114 -27 l91 -2 -120 -6 c-70 -4 -95 -7 -59 -8 33 -1 66 -8
73 -14 11 -10 13 -10 7 0 -5 9 6 12 43 12 62 0 68 -17 9 -23 l-43 -4 45 -2
c35 -2 41 -4 25 -11 -17 -7 -17 -9 -2 -9 9 -1 17 -5 17 -11 0 -13 -97 -13
-105 0 -3 6 -14 9 -23 9 -15 -1 -15 -2 1 -6 33 -9 17 -18 -32 -18 -27 1 -56 7
-64 13 -10 9 -40 12 -89 9 l-73 -3 76 -2 c49 -1 80 -7 88 -15 8 -10 38 -13
118 -11 69 2 101 0 88 -6 -17 -7 -18 -9 -2 -9 9 -1 17 -5 17 -11 0 -5 -8 -10
-17 -11 -15 0 -15 -2 2 -9 14 -6 3 -9 -40 -9 -36 -1 -67 4 -74 12 -11 9 -13 9
-7 0 10 -18 -134 -18 -154 0 -12 10 -12 9 -1 -5 12 -16 32 -18 152 -18 86 0
139 -4 139 -10 0 -5 -26 -11 -57 -12 l-58 -1 60 -7 c55 -6 57 -7 16 -8 -24 -1
-41 -5 -37 -9 4 -4 23 -6 42 -4 19 1 34 -2 34 -8 0 -6 -8 -11 -17 -12 -16 0
-15 -2 2 -10 14 -6 4 -8 -38 -6 -38 1 -57 -2 -57 -10 0 -6 -8 -14 -17 -16 -16
-4 -16 -5 -1 -6 9 0 20 3 23 9 3 6 26 10 51 10 56 0 81 -24 87 -82 l4 -43 3
50 3 50 7 -50 7 -50 1 48 c3 65 22 60 22 -6 0 -49 -3 -56 -45 -97 -43 -43 -45
-46 -43 -100 l2 -55 3 55 c4 47 9 60 41 93 20 20 41 36 47 33 6 -2 9 21 9 63
-2 60 -1 62 6 21 l7 -45 1 43 c1 23 7 42 13 42 7 0 9 -40 7 -120 -2 -66 0
-120 5 -120 4 0 7 55 8 123 0 77 4 115 9 102 7 -17 9 -17 9 -2 1 9 6 17 12 17
7 0 9 -49 7 -155 -2 -85 0 -155 5 -155 4 0 7 71 8 158 0 97 4 149 9 137 7 -17
9 -17 9 -2 1 9 6 17 11 17 6 0 10 -20 10 -44 0 -25 -4 -48 -10 -51 -5 -3 -10
-45 -10 -92 0 -48 2 -84 5 -81 3 3 6 43 7 89 0 55 4 75 8 59 l8 -25 2 25 c1
14 1 48 1 75 0 38 2 45 9 30 7 -17 9 -18 9 -2 1 9 6 17 11 17 6 0 11 -47 12
-117 l2 -118 6 120 c3 66 8 111 11 100 6 -17 7 -17 8 -2 0 9 6 17 11 17 6 0
10 -8 11 -17 0 -16 2 -15 10 2 7 16 9 14 6 -12 -2 -23 1 -33 10 -33 20 0 16
-48 -4 -54 -14 -4 -14 -4 2 -3 23 2 33 43 16 60 -14 14 -14 57 -1 57 6 0 10
-8 11 -17 0 -16 2 -15 10 2 7 15 8 8 6 -27 -1 -33 2 -48 10 -48 17 0 17 -47 1
-53 -8 -2 -7 -3 2 -3 18 1 26 44 11 59 -14 14 -14 87 -1 87 6 0 10 -8 11 -17
0 -16 2 -15 10 2 7 16 9 14 6 -13 -2 -22 1 -32 10 -32 8 0 13 -11 12 -27 l-1
-28 -8 25 c-4 14 -9 21 -10 15 -1 -5 -3 -18 -5 -28 -2 -13 2 -17 13 -15 20 4
28 46 13 61 -14 14 -14 57 -1 57 6 0 10 -8 11 -17 0 -15 2 -15 9 2 8 17 9 16
11 -10 1 -25 2 -26 6 -7 6 29 37 62 59 62 8 0 30 -11 48 -25 38 -29 53 -31 90
-11 25 13 25 14 6 19 -13 3 -20 0 -20 -9 0 -9 -10 -14 -27 -13 l-28 1 25 8 25
8 -25 2 c-14 1 -30 2 -36 1 -6 -1 -17 6 -24 14 -7 8 -24 15 -39 16 -23 0 -24
1 -6 9 17 7 17 9 3 9 -10 1 -18 6 -18 11 0 6 8 10 18 11 14 0 14 2 -3 9 -19 8
-18 9 4 9 14 1 33 8 43 17 14 13 21 14 32 5 20 -17 59 -10 61 10 2 12 -3 15
-24 11 l-26 -6 25 -7 25 -7 -27 -1 c-16 -1 -28 4 -28 12 0 8 -16 11 -52 10
-39 -2 -48 0 -33 6 17 8 18 10 3 10 -10 1 -18 5 -18 10 0 12 40 18 70 11 25
-7 25 -7 -5 -12 l-30 -5 32 -2 c17 0 33 4 35 10 2 6 25 11 51 11 26 0 49 3 51
6 2 4 -44 6 -102 6 -65 -1 -99 1 -87 6 17 7 17 9 3 9 -10 1 -18 6 -18 11 0 6
8 10 18 11 14 0 14 2 -3 9 -13 6 8 9 65 9 79 1 86 3 86 21 0 18 -8 20 -86 22
l-85 2 85 5 c71 5 85 9 86 24 2 15 -9 17 -85 18 -57 0 -79 3 -66 9 17 7 17 9
3 9 -10 1 -18 6 -18 11 0 6 31 10 72 10 53 0 77 -4 92 -17 21 -18 21 -18 2 5
-17 19 -29 22 -95 23 -52 0 -70 3 -56 9 17 7 17 9 3 9 -10 1 -18 6 -18 11 0 6
51 11 128 12 l127 2 -130 6 c-71 3 -121 8 -110 11 17 6 17 7 3 8 -10 0 -18 6
-18 11 0 6 8 10 18 11 14 0 14 2 -3 9 -14 6 1 9 50 11 58 1 64 3 35 9 l-35 7
35 3 c33 3 33 3 6 7 -16 3 -33 0 -39 -6 -26 -26 -83 -2 -100 40 -4 9 -6 7 -7
-6 l-1 -20 -9 20 c-7 17 -9 17 -9 3 -1 -28 -21 -21 -21 6 0 14 5 28 10 31 6 3
9 18 9 33 l-1 27 -8 -30 c-7 -27 -8 -27 -9 -6 -2 44 -14 13 -13 -36 0 -35 -2
-43 -8 -28 -7 17 -9 17 -9 3 -1 -10 -5 -18 -11 -18 -5 0 -10 8 -11 18 0 14 -2
14 -8 -3 -5 -11 -8 67 -9 173 0 106 -3 196 -6 199 -3 4 -6 2 -7 -3z m3 -249
c3 -14 1 -25 -3 -25 -5 0 -9 11 -9 25 0 14 2 25 4 25 2 0 6 -11 8 -25z m138
-402 l0 -253 -252 0 -253 0 2 233 c1 127 2 240 2 249 1 22 17 23 283 23 l218
0 0 -252z m170 47 c0 -6 -32 -10 -75 -10 -43 0 -75 4 -75 10 0 6 32 10 75 10
43 0 75 -4 75 -10z m0 -50 c0 -6 -32 -10 -75 -10 -43 0 -75 4 -75 10 0 6 32
10 75 10 43 0 75 -4 75 -10z m-95 -150 c-3 -5 -17 -10 -31 -10 -13 0 -24 5
-24 10 0 6 14 10 31 10 17 0 28 -4 24 -10z"/>
<path d="M642 1058 c-17 -17 -17 -399 0 -416 17 -17 399 -17 416 0 17 17 17
399 0 416 -17 17 -399 17 -416 0z m413 -208 l0 -205 -205 0 -205 0 -3 195 c-1
107 0 200 3 207 3 11 48 13 207 11 l203 -3 0 -205z"/>
<path d="M666 1034 c-24 -23 -24 -345 0 -368 23 -24 345 -24 368 0 24 23 24
345 0 368 -23 24 -345 24 -368 0z m362 -6 c17 -17 17 -339 0 -356 -17 -17
-339 -17 -356 0 -17 17 -17 339 0 356 17 17 339 17 356 0z"/>
<path d="M760 1490 c0 -5 5 -10 10 -10 6 0 10 5 10 10 0 6 -4 10 -10 10 -5 0
-10 -4 -10 -10z"/>
<path d="M910 1490 c0 -5 5 -10 11 -10 5 0 7 5 4 10 -3 6 -8 10 -11 10 -2 0
-4 -4 -4 -10z"/>
<path d="M834 1465 c-3 -8 -4 -20 -2 -27 3 -7 7 -1 10 15 6 29 1 36 -8 12z"/>
<path d="M643 1390 c0 -30 2 -43 4 -27 2 15 2 39 0 55 -2 15 -4 2 -4 -28z"/>
<path d="M803 1375 c0 -33 2 -45 4 -27 2 18 2 45 0 60 -2 15 -4 0 -4 -33z"/>
<path d="M1036 1365 c4 -8 14 -15 24 -15 14 0 18 -8 18 -37 0 -65 0 -66 17
-49 8 8 14 27 14 43 l-1 28 -8 -30 c-7 -29 -8 -29 -10 -5 -1 14 -2 33 -1 43 2
11 -5 17 -18 17 -12 0 -21 5 -21 10 0 6 -4 10 -10 10 -5 0 -7 -7 -4 -15z"/>
<path d="M920 1346 c0 -2 8 -10 18 -17 15 -13 16 -12 3 4 -13 16 -21 21 -21
13z"/>
<path d="M777 1293 c-2 -5 -1 -19 4 -33 7 -23 7 -23 8 8 1 31 -3 40 -12 25z"/>
<path d="M570 1239 c-7 -11 -10 -22 -8 -22 2 -1 14 -11 28 -22 l25 -20 -19 22
c-11 13 -16 31 -13 43 7 26 1 26 -13 -1z"/>
<path d="M1025 1240 c-3 -5 -1 -10 4 -10 6 0 11 5 11 10 0 6 -2 10 -4 10 -3 0
-8 -4 -11 -10z"/>
<path d="M363 1103 c7 -7 149 -4 156 3 2 2 -33 4 -79 4 -46 0 -80 -3 -77 -7z"/>
<path d="M1278 1103 c6 -2 18 -2 25 0 6 3 1 5 -13 5 -14 0 -19 -2 -12 -5z"/>
<path d="M1467 1082 c-23 -24 -27 -36 -27 -90 0 -60 -14 -85 -23 -39 -4 20 -4
19 -6 -4 0 -16 5 -29 14 -33 8 -3 15 -16 15 -29 0 -13 10 -32 23 -43 l22 -19
-19 22 c-16 19 -19 37 -17 115 1 85 3 94 28 120 15 15 24 28 22 28 -3 0 -17
-13 -32 -28z"/>
<path d="M410 1062 c0 -4 18 -6 40 -4 22 2 40 6 40 8 0 2 -18 4 -40 4 -22 0
-40 -3 -40 -8z"/>
<path d="M1255 1054 c-12 -11 -15 -15 -8 -10 8 5 19 4 28 -4 8 -6 22 -10 32
-7 15 4 14 5 -4 6 -12 0 -23 8 -25 17 -3 14 -5 14 -23 -2z"/>
<path d="M1310 1061 l-25 -7 26 -5 c17 -4 26 -1 26 8 0 7 -1 13 -1 12 -1 -1
-12 -4 -26 -8z"/>
<path d="M253 1045 c0 -7 10 -10 24 -7 13 2 23 6 23 7 0 1 -10 5 -23 7 -14 3
-24 0 -24 -7z"/>
<path d="M345 1043 c22 -3 50 -13 61 -24 17 -16 32 -19 70 -16 l49 3 -51 2
c-37 1 -56 8 -69 22 -13 15 -29 20 -59 18 l-41 -1 40 -4z"/>
<path d="M328 1013 c12 -2 30 -2 40 0 9 3 -1 5 -23 4 -22 0 -30 -2 -17 -4z"/>
<path d="M1380 1006 c0 -2 8 -10 18 -17 15 -13 16 -12 3 4 -13 16 -21 21 -21
13z"/>
<path d="M270 770 c0 -5 5 -10 10 -10 6 0 10 5 10 10 0 6 -4 10 -10 10 -5 0
-10 -4 -10 -10z"/>
<path d="M1283 743 c9 -2 25 -2 35 0 9 3 1 5 -18 5 -19 0 -27 -2 -17 -5z"/>
<path d="M1389 668 c14 -19 51 -25 51 -8 0 5 -7 7 -15 4 -8 -4 -23 0 -33 7
-15 13 -16 12 -3 -3z"/>
<path d="M220 655 c0 -6 26 -9 64 -7 47 2 66 -2 76 -13 11 -13 7 -15 -29 -15
-23 0 -40 -3 -38 -7 3 -5 42 -7 87 -5 80 3 106 13 39 14 -19 0 -43 9 -54 19
-23 21 -145 32 -145 14z"/>
<path d="M1230 633 c51 -3 81 -9 95 -21 20 -17 20 -17 1 6 -17 20 -27 22 -95
20 l-76 -2 75 -3z"/>
<path d="M1104 502 c12 -14 16 -30 13 -44 -6 -22 -5 -22 8 -4 20 26 19 28 -13
50 l-27 20 19 -22z"/>
<path d="M931 494 c0 -11 3 -14 6 -6 3 7 2 16 -1 19 -3 4 -6 -2 -5 -13z"/>
<path d="M981 464 c0 -11 3 -14 6 -6 3 7 2 16 -1 19 -3 4 -6 -2 -5 -13z"/>
<path d="M823 390 c0 -25 2 -35 4 -22 2 12 2 32 0 45 -2 12 -4 2 -4 -23z"/>
<path d="M503 340 c0 -25 2 -35 4 -22 2 12 2 32 0 45 -2 12 -4 2 -4 -23z"/>
<path d="M830 336 c0 -2 8 -10 18 -17 15 -13 16 -12 3 4 -13 16 -21 21 -21 13z"/>
</g>
</svg>
