<?xml version="1.0" standalone="no"?>
<!DOCTYPE svg PUBLIC "-//W3C//DTD SVG 20010904//EN"
 "http://www.w3.org/TR/2001/REC-SVG-20010904/DTD/svg10.dtd">
<svg version="1.0" xmlns="http://www.w3.org/2000/svg"
 width="600.000000pt" height="600.000000pt" viewBox="0 0 600.000000 600.000000"
 preserveAspectRatio="xMidYMid meet">

<g transform="translate(0.000000,600.000000) scale(0.100000,-0.100000)"
fill="#000000" stroke="none">
<path d="M2115 5225 c-89 -19 -185 -58 -258 -104 -74 -47 -179 -154 -220 -224
-34 -58 -67 -151 -66 -186 0 -21 3 -18 13 15 52 166 207 324 389 397 183 73
440 76 586 5 66 -32 145 -110 172 -171 19 -42 24 -69 24 -142 0 -78 -4 -97
-27 -145 -15 -30 -26 -56 -24 -57 7 -8 56 79 72 126 24 74 16 189 -18 263 -51
109 -167 192 -313 223 -85 18 -249 18 -330 0z"/>
<path d="M2860 5191 c-32 -10 -130 -60 -130 -66 0 -3 23 4 52 16 197 77 438
-22 532 -220 29 -61 31 -74 30 -166 -1 -75 -6 -115 -23 -160 -44 -121 -120
-205 -214 -238 -23 -8 -103 -20 -177 -26 -150 -13 -313 -45 -435 -85 -168 -57
-362 -163 -460 -253 -46 -42 -44 -41 49 22 147 98 346 177 561 220 116 23 342
51 351 42 2 -2 -1 -30 -7 -63 -12 -63 -5 -161 16 -230 l13 -43 -77 -6 c-172
-15 -293 -48 -458 -125 -87 -41 -139 -72 -299 -177 -22 -14 -23 -12 -62 69
-22 46 -54 99 -71 118 l-32 35 22 -32 c13 -18 21 -34 18 -36 -339 -285 -532
-608 -600 -1008 -31 -179 -24 -442 15 -613 69 -299 203 -549 409 -763 378
-392 896 -565 1433 -478 543 88 1018 469 1224 983 248 619 100 1304 -383 1769
-279 268 -691 443 -1046 443 l-74 0 6 63 c7 73 28 138 48 148 8 4 39 19 69 32
158 68 247 229 238 430 -3 81 -8 103 -35 158 -18 35 -46 80 -62 100 -42 51
-132 108 -203 131 -62 19 -190 23 -238 9z m452 -1120 c314 -54 593 -198 825
-426 91 -90 114 -118 123 -152 19 -74 -16 -155 -80 -188 -102 -53 -680 -221
-1029 -299 -178 -41 -222 -34 -275 42 -39 57 -73 69 -150 53 -111 -23 -975
-318 -1000 -342 -5 -5 -8 -11 -5 -13 3 -3 180 42 393 100 394 105 416 109 416
68 0 -7 -10 -20 -22 -27 -13 -8 -188 -65 -390 -128 -230 -71 -368 -118 -368
-126 0 -7 7 -13 16 -13 8 0 182 41 385 90 203 50 378 90 388 90 21 0 33 -22
25 -43 -2 -7 -140 -54 -307 -105 -166 -51 -339 -103 -384 -117 -55 -17 -83
-31 -83 -40 0 -8 3 -15 8 -15 4 0 182 41 395 92 344 81 390 90 403 76 21 -20
8 -45 -29 -57 -18 -6 -187 -53 -377 -106 -402 -111 -376 -103 -364 -115 5 -5
154 20 379 65 585 116 731 156 750 202 3 10 11 42 15 72 12 70 30 96 88 124
134 68 769 241 1153 316 177 35 210 32 265 -23 36 -36 70 -131 106 -298 29
-138 32 -434 5 -578 -63 -339 -248 -666 -505 -893 -534 -472 -1319 -527 -1907
-134 -156 105 -318 261 -410 396 -46 67 -50 78 -50 131 0 63 17 95 67 133 70
52 1094 313 1306 333 l68 6 68 -51 c136 -103 229 -135 391 -135 128 0 200 17
321 74 114 53 197 111 281 196 121 124 172 259 129 343 -40 76 -161 151 -311
192 -119 33 -348 33 -460 1 -123 -36 -209 -86 -296 -172 -62 -61 -85 -93 -123
-171 -44 -91 -50 -98 -94 -117 -153 -66 -758 -219 -1233 -311 -172 -34 -203
-32 -259 15 -40 34 -47 49 -65 136 -39 183 -37 439 6 633 65 302 201 548 432
780 l129 130 14 -25 c7 -14 23 -54 35 -90 12 -36 23 -67 25 -69 2 -2 41 19 86
46 286 174 509 247 756 247 73 0 131 2 130 5 -2 4 -15 31 -30 61 -15 30 -31
76 -34 103 l-7 47 76 0 c41 0 126 -9 189 -19z m236 -1036 c-2 -3 -132 -50
-288 -104 -155 -55 -287 -104 -292 -109 -5 -5 -13 -37 -19 -72 -19 -118 -37
-133 -213 -184 -132 -39 -135 -31 -7 19 165 63 169 67 186 187 10 75 30 91
168 137 107 36 436 129 461 130 5 1 7 -1 4 -4z m699 -572 c-85 -168 -247 -298
-432 -348 -129 -35 -357 -29 -440 11 -25 12 -26 13 -5 8 67 -16 258 -16 345 1
224 42 421 168 520 333 38 63 44 60 12 -5z"/>
<path d="M4108 2038 c-8 -7 -37 -53 -63 -101 -182 -329 -506 -541 -880 -575
-264 -25 -532 46 -742 194 -88 63 -146 58 -167 -12 -12 -39 15 -71 111 -134
427 -283 979 -277 1413 13 104 70 275 243 343 347 82 128 109 186 102 221 -11
50 -79 77 -117 47z"/>
<path d="M1507 4601 c-115 -38 -211 -122 -259 -227 -20 -41 -23 -66 -23 -159
0 -98 3 -116 27 -167 50 -108 163 -191 297 -219 80 -16 223 -6 291 21 67 26
92 47 30 24 -25 -9 -85 -18 -135 -21 -143 -9 -260 29 -352 112 -173 155 -133
445 79 569 108 63 258 72 359 20 35 -17 49 -21 40 -11 -7 9 -38 29 -69 44 -74
36 -199 42 -285 14z"/>
<path d="M3388 4183 c7 -3 16 -2 19 1 4 3 -2 6 -13 5 -11 0 -14 -3 -6 -6z"/>
<path d="M3428 4173 c7 -3 16 -2 19 1 4 3 -2 6 -13 5 -11 0 -14 -3 -6 -6z"/>
<path d="M3545 4140 c790 -268 1274 -1051 1154 -1865 -112 -755 -718 -1337
-1484 -1425 -368 -42 -773 54 -1082 256 -414 269 -690 697 -758 1174 -75 527
101 1059 474 1431 53 52 111 108 130 123 30 24 32 29 19 42 -13 13 -23 7 -89
-49 -372 -318 -581 -727 -619 -1209 -24 -306 34 -602 175 -893 83 -171 192
-323 329 -460 275 -274 578 -430 962 -495 112 -19 155 -21 324 -17 256 6 407
37 627 128 535 222 920 689 1043 1264 17 76 23 149 27 300 5 176 3 216 -17
330 -107 633 -545 1150 -1145 1353 -49 17 -106 33 -125 36 -19 4 6 -7 55 -24z"/>
</g>
</svg>
