<svg width="22" height="21" viewBox="0 0 22 21" fill="none" xmlns="http://www.w3.org/2000/svg">
<path d="M11.7427 10.1846L17.447 7.85022L17.5379 8.00058L12.7402 12.0645L11.7427 10.1846Z" fill="url(#paint0_linear_997_654)"/>
<path d="M11.0963 10.08C10.2034 10.08 9.48096 10.8326 9.48096 11.76C9.48096 12.6873 10.2034 13.44 11.0963 13.44C11.9892 13.44 12.7117 12.6873 12.7117 11.76C12.7117 10.8322 11.9892 10.08 11.0963 10.08Z" stroke="url(#paint1_linear_997_654)" stroke-width="2" stroke-miterlimit="10" stroke-linecap="round" stroke-linejoin="round"/>
<path d="M19.1565 17.362C20.1871 15.7597 20.7884 13.834 20.7884 11.76C20.7884 6.18911 16.4527 1.67999 11.0961 1.67999C5.7395 1.67999 1.40381 6.18911 1.40381 11.76C1.40381 13.8331 2.00473 15.7588 3.03414 17.3594" stroke="url(#paint2_linear_997_654)" stroke-width="2" stroke-miterlimit="10" stroke-linecap="round" stroke-linejoin="round"/>
<path d="M20.7887 11.76H19.5771" stroke="url(#paint3_linear_997_654)" stroke-width="2" stroke-miterlimit="10" stroke-linecap="round" stroke-linejoin="round"/>
<path d="M1.40381 11.76H2.61535" stroke="url(#paint4_linear_997_654)" stroke-width="2" stroke-miterlimit="10" stroke-linecap="round" stroke-linejoin="round"/>
<path d="M11.0962 1.67999V2.93999" stroke="url(#paint5_linear_997_654)" stroke-width="2" stroke-miterlimit="10" stroke-linecap="round" stroke-linejoin="round"/>
<path d="M6.24951 3.03027L6.85528 4.12143" stroke="url(#paint6_linear_997_654)" stroke-width="2" stroke-miterlimit="10" stroke-linecap="round" stroke-linejoin="round"/>
<path d="M19.4901 16.8L18.4409 16.17" stroke="url(#paint7_linear_997_654)" stroke-width="2" stroke-miterlimit="10" stroke-linecap="round" stroke-linejoin="round"/>
<path d="M2.70264 6.72003L3.75183 7.35003" stroke="url(#paint8_linear_997_654)" stroke-width="2" stroke-miterlimit="10" stroke-linecap="round" stroke-linejoin="round"/>
<path d="M2.70264 16.8L3.75183 16.17" stroke="url(#paint9_linear_997_654)" stroke-width="2" stroke-miterlimit="10" stroke-linecap="round" stroke-linejoin="round"/>
<path d="M19.4897 6.72003L18.4409 7.35003" stroke="url(#paint10_linear_997_654)" stroke-width="2" stroke-miterlimit="10" stroke-linecap="round" stroke-linejoin="round"/>
<path d="M15.9422 3.02991L15.3364 4.12149" stroke="url(#paint11_linear_997_654)" stroke-width="2" stroke-miterlimit="10" stroke-linecap="round" stroke-linejoin="round"/>
<path d="M15.1349 17.22H7.05713V18.8992H15.1349V17.22Z" stroke="url(#paint12_linear_997_654)" stroke-width="2" stroke-miterlimit="10" stroke-linecap="round" stroke-linejoin="round"/>
<defs>
<linearGradient id="paint0_linear_997_654" x1="14.6403" y1="7.85022" x2="14.6403" y2="12.0645" gradientUnits="userSpaceOnUse">
<stop stop-color="#6563FF"/>
<stop offset="1" stop-color="#20BDFF"/>
</linearGradient>
<linearGradient id="paint1_linear_997_654" x1="11.0963" y1="10.08" x2="11.0963" y2="13.44" gradientUnits="userSpaceOnUse">
<stop stop-color="#6563FF"/>
<stop offset="1" stop-color="#20BDFF"/>
</linearGradient>
<linearGradient id="paint2_linear_997_654" x1="11.0961" y1="1.67999" x2="11.0961" y2="17.362" gradientUnits="userSpaceOnUse">
<stop stop-color="#6563FF"/>
<stop offset="1" stop-color="#20BDFF"/>
</linearGradient>
<linearGradient id="paint3_linear_997_654" x1="20.1829" y1="11.76" x2="20.1829" y2="12.76" gradientUnits="userSpaceOnUse">
<stop stop-color="#6563FF"/>
<stop offset="1" stop-color="#20BDFF"/>
</linearGradient>
<linearGradient id="paint4_linear_997_654" x1="2.00958" y1="11.76" x2="2.00958" y2="12.76" gradientUnits="userSpaceOnUse">
<stop stop-color="#6563FF"/>
<stop offset="1" stop-color="#20BDFF"/>
</linearGradient>
<linearGradient id="paint5_linear_997_654" x1="11.5962" y1="1.67999" x2="11.5962" y2="2.93999" gradientUnits="userSpaceOnUse">
<stop stop-color="#6563FF"/>
<stop offset="1" stop-color="#20BDFF"/>
</linearGradient>
<linearGradient id="paint6_linear_997_654" x1="6.5524" y1="3.03027" x2="6.5524" y2="4.12143" gradientUnits="userSpaceOnUse">
<stop stop-color="#6563FF"/>
<stop offset="1" stop-color="#20BDFF"/>
</linearGradient>
<linearGradient id="paint7_linear_997_654" x1="18.9655" y1="16.17" x2="18.9655" y2="16.8" gradientUnits="userSpaceOnUse">
<stop stop-color="#6563FF"/>
<stop offset="1" stop-color="#20BDFF"/>
</linearGradient>
<linearGradient id="paint8_linear_997_654" x1="3.22723" y1="6.72003" x2="3.22723" y2="7.35003" gradientUnits="userSpaceOnUse">
<stop stop-color="#6563FF"/>
<stop offset="1" stop-color="#20BDFF"/>
</linearGradient>
<linearGradient id="paint9_linear_997_654" x1="3.22723" y1="16.17" x2="3.22723" y2="16.8" gradientUnits="userSpaceOnUse">
<stop stop-color="#6563FF"/>
<stop offset="1" stop-color="#20BDFF"/>
</linearGradient>
<linearGradient id="paint10_linear_997_654" x1="18.9653" y1="6.72003" x2="18.9653" y2="7.35003" gradientUnits="userSpaceOnUse">
<stop stop-color="#6563FF"/>
<stop offset="1" stop-color="#20BDFF"/>
</linearGradient>
<linearGradient id="paint11_linear_997_654" x1="15.6393" y1="3.02991" x2="15.6393" y2="4.12149" gradientUnits="userSpaceOnUse">
<stop stop-color="#6563FF"/>
<stop offset="1" stop-color="#20BDFF"/>
</linearGradient>
<linearGradient id="paint12_linear_997_654" x1="11.096" y1="17.22" x2="11.096" y2="18.8992" gradientUnits="userSpaceOnUse">
<stop stop-color="#6563FF"/>
<stop offset="1" stop-color="#20BDFF"/>
</linearGradient>
</defs>
</svg>
