<svg width="19" height="19" viewBox="0 0 19 19" fill="none" xmlns="http://www.w3.org/2000/svg">
<path d="M18.2692 10.2308C18.6726 10.2308 19 9.90338 19 9.5C19 9.09662 18.6726 8.76923 18.2692 8.76923H17.0513V7.30769H18.2692C18.6726 7.30769 19 6.98031 19 6.57692C19 6.17354 18.6726 5.84615 18.2692 5.84615H17.0513V4.62821C17.0513 3.1501 15.8499 1.94872 14.3718 1.94872H13.1538V0.730769C13.1538 0.327385 12.8265 0 12.4231 0C12.0197 0 11.6923 0.327385 11.6923 0.730769V1.94872H10.2308V0.730769C10.2308 0.327385 9.90338 0 9.5 0C9.09662 0 8.76923 0.327385 8.76923 0.730769V1.94872H7.30769V0.730769C7.30769 0.327385 6.98031 0 6.57692 0C6.17354 0 5.84615 0.327385 5.84615 0.730769V1.94872H4.62821C3.1501 1.94872 1.94872 3.1501 1.94872 4.62821V5.84615H0.730769C0.327385 5.84615 0 6.17354 0 6.57692C0 6.98031 0.327385 7.30769 0.730769 7.30769H1.94872V8.76923H0.730769C0.327385 8.76923 0 9.09662 0 9.5C0 9.90338 0.327385 10.2308 0.730769 10.2308H1.94872V11.6923H0.730769C0.327385 11.6923 0 12.0197 0 12.4231C0 12.8265 0.327385 13.1538 0.730769 13.1538H1.94872V14.3718C1.94872 15.8499 3.1501 17.0513 4.62821 17.0513H5.84615V18.2692C5.84615 18.6726 6.17354 19 6.57692 19C6.98031 19 7.30769 18.6726 7.30769 18.2692V17.0513H8.76923V18.2692C8.76923 18.6726 9.09662 19 9.5 19C9.90338 19 10.2308 18.6726 10.2308 18.2692V17.0513H11.6923V18.2692C11.6923 18.6726 12.0197 19 12.4231 19C12.8265 19 13.1538 18.6726 13.1538 18.2692V17.0513H14.3718C15.8499 17.0513 17.0513 15.8499 17.0513 14.3718V13.1538H18.2692C18.6726 13.1538 19 12.8265 19 12.4231C19 12.0197 18.6726 11.6923 18.2692 11.6923H17.0513V10.2308H18.2692ZM15.5897 14.3718C15.5897 15.0431 15.0431 15.5897 14.3718 15.5897H4.62821C3.95687 15.5897 3.41026 15.0431 3.41026 14.3718V4.62821C3.41026 3.95687 3.95687 3.41026 4.62821 3.41026H14.3718C15.0431 3.41026 15.5897 3.95687 15.5897 4.62821V14.3718ZM11.4487 4.87179H7.55128C6.07318 4.87179 4.87179 6.07318 4.87179 7.55128V11.4487C4.87179 12.9268 6.07318 14.1282 7.55128 14.1282H11.4487C12.9268 14.1282 14.1282 12.9268 14.1282 11.4487V7.55128C14.1282 6.07318 12.9268 4.87179 11.4487 4.87179ZM12.6667 11.4487C12.6667 12.1201 12.1201 12.6667 11.4487 12.6667H7.55128C6.87995 12.6667 6.33333 12.1201 6.33333 11.4487V7.55128C6.33333 6.87995 6.87995 6.33333 7.55128 6.33333H11.4487C12.1201 6.33333 12.6667 6.87995 12.6667 7.55128V11.4487Z" fill="url(#paint0_linear_997_672)"/>
<defs>
<linearGradient id="paint0_linear_997_672" x1="2.73405" y1="16.2659" x2="16.2659" y2="2.73405" gradientUnits="userSpaceOnUse">
<stop stop-color="#5433FF"/>
<stop offset="1" stop-color="#20BDFF"/>
</linearGradient>
</defs>
</svg>
