<?xml version="1.0" standalone="no"?>
<!DOCTYPE svg PUBLIC "-//W3C//DTD SVG 20010904//EN"
 "http://www.w3.org/TR/2001/REC-SVG-20010904/DTD/svg10.dtd">
<svg version="1.0" xmlns="http://www.w3.org/2000/svg"
 width="225.000000pt" height="225.000000pt" viewBox="0 0 225.000000 225.000000"
 preserveAspectRatio="xMidYMid meet">

<g transform="translate(0.000000,225.000000) scale(0.100000,-0.100000)"
fill="#000000" stroke="none">
<path d="M1200 1666 c-86 -36 -217 -104 -277 -143 -54 -36 -54 -36 -47 -79 12
-81 -48 -154 -127 -154 -35 0 -37 -2 -49 -46 -12 -42 -12 -47 5 -57 79 -44 98
-148 39 -212 l-24 -26 21 -40 c20 -40 21 -40 63 -34 83 13 156 -46 156 -126 0
-29 4 -38 22 -42 12 -4 24 -5 25 -3 2 2 25 83 51 179 l48 176 -149 3 -149 3
174 235 c282 382 288 390 281 390 -5 -1 -33 -11 -63 -24z"/>
</g>
</svg>
