<?xml version="1.0" standalone="no"?>
<!DOCTYPE svg PUBLIC "-//W3C//DTD SVG 20010904//EN"
 "http://www.w3.org/TR/2001/REC-SVG-20010904/DTD/svg10.dtd">
<svg version="1.0" xmlns="http://www.w3.org/2000/svg"
 width="225.000000pt" height="224.000000pt" viewBox="0 0 225.000000 224.000000"
 preserveAspectRatio="xMidYMid meet">

<g transform="translate(0.000000,224.000000) scale(0.100000,-0.100000)"
fill="#000000" stroke="none">
<path d="M1042 1598 c-7 -7 -12 -22 -12 -33 0 -17 -14 -27 -71 -49 -51 -20
-74 -25 -82 -17 -22 22 -54 10 -100 -37 -50 -50 -55 -67 -33 -97 11 -16 10
-25 -9 -69 -12 -28 -25 -59 -28 -68 -4 -11 -16 -18 -31 -18 -33 0 -46 -26 -46
-92 0 -61 16 -90 50 -93 17 -1 26 -13 41 -54 10 -29 24 -59 30 -67 9 -11 8
-18 -5 -32 -25 -28 -20 -49 25 -97 49 -54 74 -63 100 -39 18 16 22 16 54 1
l34 -16 44 62 c93 133 90 128 70 120 -17 -7 -17 -6 0 20 9 14 17 29 17 32 0 3
-22 5 -50 5 -27 0 -50 3 -50 8 0 4 30 43 68 87 43 51 57 74 40 63 -39 -26 -41
-23 -13 22 14 22 25 42 25 45 0 3 -17 5 -37 6 -81 1 -82 9 -12 85 35 38 75 82
89 98 l25 30 -35 -24 c-40 -28 -38 -24 40 70 25 30 64 77 86 105 l39 50 -42
-34 c-43 -32 -43 -32 -43 -9 0 39 -18 48 -95 48 -42 0 -76 -5 -83 -12z"/>
</g>
</svg>
