<svg xmlns="http://www.w3.org/2000/svg" enable-background="new 0 0 32 32" viewBox="0 0 32 32" id="mobile-pc"><path d="M27 12H15c-1.7 0-3 1.3-3 3v6h18v-6C30 13.3 28.7 12 27 12zM15 26h3v2h-2c-.5 0-1 .5-1 1s.5 1 1 1h10c.5 0 1-.5 1-1s-.5-1-1-1h-2v-2h3c1.7 0 3-1.4 3-3H12C12 24.6 13.3 26 15 26zM5 30h8.2c-.1-.3-.2-.6-.2-1 0-.5.1-.9.3-1.3-.9-.3-1.7-.9-2.3-1.7H2v1C2 28.7 3.3 30 5 30z"></path><path d="M10,23v-8c0-2.8,2.2-5,5-5h5V5c0-1.7-1.3-3-3-3H5C3.3,2,2,3.3,2,5v19h8.1C10,23.7,10,23.3,10,23z M9,5c0-0.5,0.5-1,1-1h2
		c0.5,0,1,0.5,1,1s-0.5,1-1,1h-2C9.5,6,9,5.5,9,5z"></path></svg>