<?xml version="1.0" standalone="no"?>
<!DOCTYPE svg PUBLIC "-//W3C//DTD SVG 20010904//EN"
 "http://www.w3.org/TR/2001/REC-SVG-20010904/DTD/svg10.dtd">
<svg version="1.0" xmlns="http://www.w3.org/2000/svg"
 width="225.000000pt" height="225.000000pt" viewBox="0 0 225.000000 225.000000"
 preserveAspectRatio="xMidYMid meet">

<g transform="translate(0.000000,225.000000) scale(0.100000,-0.100000)"
fill="#000000" stroke="none">
<path d="M1049 1863 c-8 -2 -40 -47 -71 -101 -31 -53 -65 -113 -77 -133 l-21
-36 57 20 c60 21 210 29 264 14 25 -6 30 -1 88 100 33 58 59 108 56 111 -22
22 -239 41 -296 25z"/>
<path d="M1524 1601 l-61 -105 44 -46 c96 -98 147 -265 124 -402 -28 -168
-128 -301 -285 -379 -83 -41 -91 -43 -195 -47 -91 -4 -121 -1 -178 16 -152 47
-268 154 -330 305 -20 47 -27 87 -32 169 l-6 107 -110 -63 -110 -64 3 -54 c5
-83 28 -165 74 -258 34 -69 58 -102 132 -176 76 -76 106 -98 186 -137 124 -61
207 -80 345 -80 132 0 230 24 346 84 172 90 306 246 365 426 26 80 29 101 29
228 0 157 -15 219 -82 346 -37 71 -135 195 -174 221 -24 15 -24 14 -85 -91z"/>
</g>
</svg>
