<svg xmlns="http://www.w3.org/2000/svg" viewBox="0 0 32 32" id="price-tag"><path fill="#0c474d" d="M28.407,9.703l-4.578-4.578-.139-.625c-.173-.783-.641-1.451-1.317-1.881-.675-.43-1.476-.572-2.262-.398l-6.903,1.532c-.782,.174-1.449,.642-1.88,1.317L3.18,17.867c-.889,1.396-.477,3.253,.919,4.142l8.435,5.372c.273,.174,.565,.294,.863,.37,.336,1.29,1.5,2.249,2.893,2.249h10c1.654,0,3-1.346,3-3V11.83c0-.802-.313-1.558-.883-2.127ZM5.173,20.322c-.465-.296-.603-.916-.307-1.381L13.016,6.145c.144-.226,.367-.382,.627-.44l6.903-1.532c.535-.122,1.073,.222,1.193,.76l1.532,6.904c.057,.256,.009,.531-.132,.753l-8.149,12.797c-.144,.225-.366,.381-.627,.439-.261,.058-.528,.01-.754-.132l-8.435-5.372Zm22.117,6.678c0,.551-.449,1-1,1h-10c-.352,0-.647-.194-.826-.469,.479-.234,.904-.588,1.211-1.069l8.15-12.797c.424-.667,.569-1.491,.397-2.261l-.586-2.643,2.357,2.357c.191,.191,.297,.445,.297,.713v15.17Zm-14.609-5.86c-.278,0-.554-.064-.823-.159-.006,.011-.006,.023-.013,.034l-.537,.843c-.19,.299-.514,.463-.844,.463-.184,0-.37-.05-.536-.157-.466-.296-.603-.915-.306-1.38l.514-.806-.844-.537c-.466-.296-.603-.915-.306-1.38,.296-.465,.914-.604,1.38-.306l2.059,1.311c.233,.147,.542,.079,.69-.153,.121-.189,.107-.338,.09-.414-.017-.075-.067-.216-.219-.313l-.794-.506c-1.163-.74-1.506-2.288-.766-3.451,.359-.563,.916-.953,1.567-1.098,.49-.109,.989-.069,1.445,.109,.008-.015,.008-.031,.018-.046l.537-.843c.296-.465,.915-.604,1.38-.306,.466,.296,.603,.915,.306,1.38l-.537,.843,.794,.505c.466,.297,.603,.915,.307,1.381-.297,.466-.914,.604-1.381,.307l-2.059-1.311c-.152-.098-.3-.083-.377-.067-.075,.017-.216,.068-.313,.22-.097,.152-.083,.301-.066,.377,.017,.076,.067,.216,.219,.313l.793,.506c.563,.358,.953,.915,1.098,1.567,.145,.652,.027,1.321-.332,1.884-.493,.774-1.313,1.192-2.145,1.192Z"></path><path fill="#3cacb6" d="M18.787,10.746c-.459,0-.923-.126-1.339-.39-.563-.359-.953-.916-1.098-1.567-.145-.652-.027-1.321,.332-1.885,.358-.563,.915-.953,1.567-1.098,.654-.145,1.322-.026,1.884,.332,1.163,.741,1.506,2.29,.766,3.452-.476,.748-1.286,1.156-2.113,1.156Zm.005-3c-.044,0-.082,.006-.11,.012-.075,.017-.216,.067-.313,.219,0,0,0,0,0,0-.097,.152-.083,.301-.066,.376,.017,.075,.068,.216,.22,.313,.231,.148,.542,.08,.69-.153,.148-.232,.08-.542-.153-.691-.096-.061-.19-.078-.267-.078Zm-1.267-.305h0Z"></path></svg>