<svg xmlns="http://www.w3.org/2000/svg" viewBox="0 0 110 110" id="price-tag"><g data-name="10. Price Tag"><circle cx="55" cy="59" r="50" fill="#e7efff"></circle><circle cx="55" cy="59" r="50" fill="#e7efff"></circle><path fill="#ffa100" d="M25 23a1 1 0 01-.55.89 9.77 9.77 0 00-4.92 5.67L19 31.32a1 1 0 01-1.9 0l-.58-1.76a9.77 9.77 0 00-4.92-5.67 1 1 0 010-1.78 9.77 9.77 0 004.92-5.67l.58-1.76a1 1 0 011.9 0l.58 1.76a9.77 9.77 0 004.92 5.67A1 1 0 0125 23zM95 49a1 1 0 01-.55.89 9.77 9.77 0 00-4.92 5.67L89 57.32a1 1 0 01-1.9 0l-.58-1.76a9.77 9.77 0 00-4.92-5.67 1 1 0 010-1.78 9.77 9.77 0 004.92-5.67l.58-1.76a1 1 0 011.9 0l.58 1.76a9.77 9.77 0 004.92 5.67A1 1 0 0195 49z"></path><circle cx="5" cy="4" r="3" fill="#ff4d69"></circle><circle cx="97" cy="9" r="3" fill="#00c99f"></circle><circle cx="106" cy="102" r="3" fill="#ffa100"></circle><circle cx="4" cy="98" r="3" fill="#00c99f"></circle><path fill="#7f96d1" d="M95,87a21.2,21.2,0,0,1-.1,2.12,50,50,0,0,1-29,18.69A22,22,0,1,1,95,87Z"></path><path fill="#a5bced" d="M90,87a16.9,16.9,0,0,1-4.81,11.84A47.47,47.47,0,0,1,78.73,103,17,17,0,1,1,90,87Z"></path><path fill="#4e6aff" d="M63,46.59V104a5,5,0,0,1-3.62,4.81A5.22,5.22,0,0,1,58,109H55A49.86,49.86,0,0,1,17,91.48V46.59a5,5,0,0,1,1.36-3.43L32.09,28.57A5,5,0,0,1,35.73,27h8.54a5,5,0,0,1,3.64,1.57L61.64,43.16A5,5,0,0,1,63,46.59Z"></path><circle cx="40" cy="41" r="5" fill="#323fd4"></circle><path fill="#8fa2ff" d="M42,9V40.88A2.07,2.07,0,0,1,40.34,43,2,2,0,0,1,38,41V9a2,2,0,0,1,2-2h0A2,2,0,0,1,42,9Z"></path><path fill="#fff" d="M73.5,86h-1a3.5,3.5,0,0,1,0-7H78a1,1,0,0,0,0-2H74V75a1,1,0,0,0-2,0v2a5.5,5.5,0,0,0,.5,11h1a3.5,3.5,0,0,1,0,7H68a1,1,0,0,0,0,2h4v2a1,1,0,0,0,2,0V97a5.5,5.5,0,0,0-.5-11Z"></path><rect width="32" height="34" x="24" y="52" fill="#323fd4" rx="4"></rect><path fill="#fff" d="M40.5,68h-1a3.5,3.5,0,0,1,0-7H45a1,1,0,0,0,0-2H41V57a1,1,0,0,0-2,0v2a5.5,5.5,0,0,0,.5,11h1a3.5,3.5,0,0,1,0,7H35a1,1,0,0,0,0,2h4v2a1,1,0,0,0,2,0V79a5.5,5.5,0,0,0-.5-11Z"></path><rect width="12" height="2" x="24" y="89" fill="#8fa2ff" rx="1"></rect><rect width="12" height="2" x="24" y="94" fill="#8fa2ff" rx="1"></rect></g></svg>