<svg xmlns="http://www.w3.org/2000/svg" xmlns:xlink="http://www.w3.org/1999/xlink" preserveAspectRatio="xMidYMid" width="406" height="512" viewBox="0 0 406 512">
  <defs>
    <style>
      .cls-1 {
        fill: #000;
        fill-rule: evenodd;
      }
    </style>
  </defs>
  <path d="M398.488,127.282 C394.340,127.282 390.978,123.923 390.978,119.780 L390.978,35.558 C390.978,24.224 381.748,15.003 370.401,15.003 L35.601,15.003 C24.254,15.003 15.023,24.224 15.023,35.558 L15.023,336.494 C15.023,340.637 11.660,343.996 7.512,343.996 C3.365,343.996 0.002,340.637 0.002,336.494 L0.002,35.558 C0.002,15.952 15.971,0.000 35.600,0.000 L370.400,0.000 C390.028,0.000 405.997,15.952 405.999,35.558 L405.999,119.780 C405.999,123.923 402.637,127.282 398.488,127.282 ZM344.526,477.939 C329.129,477.939 316.603,465.427 316.603,450.047 C316.603,434.667 329.129,422.155 344.526,422.155 C359.921,422.155 372.450,434.667 372.450,450.047 C372.450,465.427 359.923,477.939 344.526,477.939 ZM344.526,437.160 C337.412,437.160 331.624,442.941 331.624,450.048 C331.624,457.154 337.412,462.936 344.526,462.936 C351.641,462.936 357.429,457.154 357.429,450.048 C357.429,442.942 351.641,437.160 344.526,437.160 ZM344.526,34.061 C359.921,34.061 372.450,46.573 372.450,61.953 C372.450,77.333 359.923,89.845 344.526,89.845 C329.129,89.845 316.603,77.333 316.603,61.953 C316.603,46.573 329.129,34.061 344.526,34.061 ZM344.526,74.841 C351.641,74.841 357.429,69.059 357.429,61.953 C357.429,54.847 351.641,49.065 344.526,49.065 C337.412,49.065 331.624,54.847 331.624,61.953 C331.624,69.059 337.412,74.841 344.526,74.841 ZM61.474,422.155 C76.872,422.155 89.399,434.667 89.399,450.047 C89.399,465.427 76.872,477.939 61.474,477.939 C46.078,477.939 33.551,465.427 33.551,450.047 C33.551,434.667 46.077,422.155 61.474,422.155 ZM61.474,462.935 C68.588,462.935 74.377,457.154 74.378,450.047 C74.378,442.941 68.589,437.159 61.474,437.159 C54.360,437.159 48.572,442.941 48.572,450.047 C48.572,457.153 54.359,462.935 61.474,462.935 ZM61.474,34.061 C76.872,34.061 89.399,46.573 89.399,61.953 C89.399,77.333 76.872,89.845 61.474,89.845 C46.077,89.845 33.551,77.333 33.551,61.953 C33.551,46.573 46.077,34.061 61.474,34.061 ZM61.474,74.841 C68.588,74.841 74.378,69.059 74.378,61.953 C74.378,54.847 68.589,49.065 61.474,49.065 C54.360,49.065 48.572,54.847 48.572,61.953 C48.572,69.059 54.359,74.841 61.474,74.841 ZM290.073,80.571 C294.222,80.571 297.584,83.930 297.584,88.073 L297.584,110.027 L307.263,110.027 C318.156,110.027 327.020,118.880 327.020,129.763 L327.020,382.238 C327.020,393.121 318.157,401.974 307.263,401.974 L297.584,401.974 L297.584,423.929 C297.584,428.072 294.222,431.431 290.073,431.431 C285.925,431.431 282.563,428.072 282.563,423.929 L282.563,401.974 L254.048,401.974 L254.048,423.929 C254.048,428.072 250.686,431.431 246.538,431.431 C242.389,431.431 239.027,428.072 239.027,423.929 L239.027,401.974 L210.512,401.974 L210.512,423.929 C210.512,428.072 207.150,431.431 203.001,431.431 C198.854,431.431 195.491,428.072 195.491,423.929 L195.491,401.974 L166.976,401.974 L166.976,423.929 C166.976,428.072 163.613,431.431 159.466,431.431 C155.318,431.431 151.955,428.072 151.955,423.929 L151.955,401.974 L123.440,401.974 L123.440,423.929 C123.440,428.072 120.078,431.431 115.930,431.431 C111.782,431.431 108.420,428.072 108.420,423.929 L108.420,401.974 L98.742,401.974 C87.847,401.974 78.984,393.121 78.984,382.238 L78.984,129.764 C78.984,118.881 87.847,110.028 98.742,110.028 L108.420,110.028 L108.420,88.073 C108.420,83.930 111.782,80.571 115.930,80.571 C120.078,80.571 123.439,83.930 123.440,88.073 L123.440,110.028 L151.955,110.028 L151.955,88.073 C151.955,83.930 155.318,80.571 159.466,80.571 C163.613,80.571 166.976,83.930 166.976,88.073 L166.976,110.028 L195.491,110.028 L195.491,88.073 C195.491,83.930 198.854,80.571 203.001,80.571 C207.150,80.571 210.512,83.930 210.512,88.073 L210.512,110.028 L239.027,110.028 L239.027,88.073 C239.027,83.930 242.389,80.571 246.538,80.571 C250.686,80.571 254.048,83.930 254.048,88.073 L254.048,110.028 L282.563,110.028 L282.563,88.073 C282.563,83.930 285.925,80.571 290.073,80.571 ZM98.742,125.031 C96.130,125.031 94.005,127.153 94.005,129.763 L94.005,382.237 C94.005,384.846 96.129,386.969 98.742,386.969 L307.258,386.969 C309.870,386.969 311.996,384.847 311.996,382.237 L311.997,382.237 L311.997,129.763 C311.997,127.154 309.871,125.031 307.260,125.031 L98.742,125.031 ZM255.995,285.925 L237.602,285.925 C234.069,285.925 231.679,284.116 231.678,282.117 L231.678,220.127 C231.678,218.126 234.069,216.317 237.602,216.317 L255.995,216.317 C269.714,216.317 280.417,222.221 280.417,238.123 L280.417,264.119 C280.417,280.021 269.713,285.925 255.995,285.925 ZM266.907,238.124 C266.907,230.696 262.854,227.173 255.995,227.173 L245.188,227.173 L245.188,275.071 L255.995,275.071 C262.854,275.071 266.907,271.548 266.907,264.120 L266.907,238.124 ZM222.434,266.120 C222.434,279.737 212.043,286.784 197.702,286.784 C184.088,286.784 173.698,280.499 173.698,274.976 C173.698,272.309 176.399,268.310 179.620,268.310 C183.881,268.310 186.686,275.642 197.286,275.642 C203.521,275.642 208.924,273.071 208.925,267.359 C208.925,253.075 175.567,257.455 175.567,234.888 C175.567,220.699 188.868,215.843 200.819,215.843 C206.951,215.843 220.563,217.176 220.563,223.460 C220.563,225.651 218.900,230.031 215.160,230.031 C211.937,230.031 209.548,226.413 200.819,226.413 C193.337,226.413 189.077,229.175 189.077,233.745 C189.077,245.552 222.434,241.458 222.434,266.120 ZM168.189,266.120 C168.189,279.737 157.799,286.784 143.458,286.784 C129.844,286.784 119.453,280.499 119.453,274.976 C119.453,272.309 122.154,268.310 125.376,268.310 C129.636,268.310 132.442,275.642 143.041,275.642 C149.276,275.642 154.680,273.071 154.680,267.359 C154.680,253.075 121.322,257.455 121.322,234.888 C121.322,220.699 134.624,215.843 146.574,215.843 C152.706,215.843 166.318,217.176 166.318,223.460 C166.318,225.651 164.655,230.031 160.915,230.031 C157.693,230.031 155.303,226.413 146.574,226.413 C139.093,226.413 134.832,229.175 134.832,233.745 C134.832,245.552 168.189,241.458 168.189,266.120 ZM7.511,369.003 C11.659,369.003 15.022,372.362 15.022,376.505 L15.022,476.442 C15.022,487.776 24.253,496.997 35.600,496.997 L370.401,496.997 C381.748,496.997 390.978,487.776 390.978,476.442 L390.978,159.790 C390.978,155.647 394.340,152.288 398.488,152.288 C402.636,152.288 405.997,155.647 405.997,159.790 L405.997,476.442 C405.997,496.048 390.028,512.000 370.400,512.000 L35.600,512.000 C15.971,512.000 0.002,496.048 0.001,476.442 L0.001,376.505 C0.001,372.362 3.364,369.003 7.511,369.003 Z" class="cls-1"/>
</svg>
