<svg width="21" height="22" viewBox="0 0 21 22" fill="none" xmlns="http://www.w3.org/2000/svg">
<path d="M20.3023 5.9673L16.6853 2.35111L16.5755 1.85742C16.4388 1.23893 16.069 0.711272 15.5349 0.371613C15.0016 0.0319539 14.3687 -0.0802126 13.7477 0.0572309L8.29371 1.26737C7.67585 1.40481 7.14886 1.77448 6.80833 2.30767L0.37064 12.4161C-0.331753 13.5188 -0.00623468 14.9856 1.09674 15.6879L7.76118 19.9312C7.97688 20.0687 8.20759 20.1635 8.44303 20.2235C8.7085 21.2425 9.62817 22 10.7288 22H18.6297C19.9365 22 21 20.9368 21 19.6303V7.64743C21 7.01392 20.7527 6.41676 20.3023 5.9673ZM1.9453 14.3553C1.5779 14.1215 1.46887 13.6317 1.70274 13.2644L8.14201 3.15682C8.25578 2.9783 8.43197 2.85507 8.6374 2.80926L14.0914 1.59913C14.5141 1.50276 14.9392 1.77448 15.034 2.19945L16.2444 7.65296C16.2895 7.85517 16.2515 8.0724 16.1401 8.24775L9.70165 18.3562C9.58788 18.5339 9.41248 18.6571 9.20626 18.7029C9.00005 18.7488 8.78909 18.7108 8.61053 18.5987L1.9453 14.3553ZM19.4198 19.6303C19.4198 20.0655 19.0651 20.4202 18.6297 20.4202H10.7288C10.4507 20.4202 10.2176 20.2669 10.0762 20.0497C10.4546 19.8649 10.7904 19.5853 11.033 19.2053L17.4722 9.0969C17.8072 8.57004 17.9218 7.91915 17.7859 7.31093L17.3229 5.22321L19.1852 7.08501C19.3361 7.23589 19.4198 7.43652 19.4198 7.64822V19.6303ZM7.87733 15.0014C7.65768 15.0014 7.43961 14.9509 7.22708 14.8758C7.22234 14.8845 7.22234 14.894 7.21681 14.9027L6.79253 15.5686C6.64241 15.8048 6.38642 15.9343 6.12569 15.9343C5.98031 15.9343 5.83335 15.8948 5.7022 15.8103C5.33401 15.5765 5.22577 15.0875 5.46043 14.7202L5.86654 14.0836L5.1997 13.6594C4.83151 13.4256 4.72327 12.9366 4.95793 12.5693C5.19179 12.202 5.68007 12.0922 6.04826 12.3276L7.67506 13.3632C7.85915 13.4793 8.10329 13.4256 8.22023 13.2423C8.31583 13.093 8.30477 12.9753 8.29133 12.9153C8.2779 12.8561 8.2384 12.7447 8.1183 12.6681L7.49097 12.2684C6.57209 11.6838 6.30109 10.4611 6.88576 9.54241C7.1694 9.09769 7.60948 8.78963 8.12383 8.67509C8.51098 8.58899 8.90524 8.62059 9.26552 8.76119C9.27184 8.74934 9.27184 8.73671 9.27974 8.72486L9.70402 8.05897C9.93789 7.69166 10.427 7.58186 10.7944 7.81726C11.1625 8.05107 11.2708 8.54002 11.0361 8.90733L10.6118 9.57321L11.2392 9.97212C11.6074 10.2067 11.7156 10.6949 11.4817 11.063C11.2471 11.4311 10.7596 11.5401 10.3906 11.3055L8.76381 10.2699C8.64372 10.1925 8.52678 10.2043 8.46595 10.217C8.40669 10.2304 8.29529 10.2707 8.21865 10.3908C8.14201 10.5108 8.15307 10.6285 8.1665 10.6886C8.17993 10.7486 8.21944 10.8592 8.33953 10.9358L8.96608 11.3355C9.4109 11.6183 9.71903 12.0583 9.8336 12.5733C9.94816 13.0883 9.85493 13.6167 9.57129 14.0615C9.18177 14.6728 8.53389 15.003 7.87654 15.003L7.87733 15.0014Z" fill="url(#paint0_linear_997_669)"/>
<defs>
<linearGradient id="paint0_linear_997_669" x1="5.75905" y1="18.8404" x2="20.7675" y2="5.01345" gradientUnits="userSpaceOnUse">
<stop stop-color="#6563FF"/>
<stop offset="1" stop-color="#00DEF4"/>
</linearGradient>
</defs>
</svg>
