<?xml version="1.0" ?><!DOCTYPE svg  PUBLIC '-//W3C//DTD SVG 1.1//EN'  'http://www.w3.org/Graphics/SVG/1.1/DTD/svg11.dtd'><svg enable-background="new 0 0 32 32" height="32px" version="1.1" viewBox="0 0 32 32" width="32px" xml:space="preserve" xmlns="http://www.w3.org/2000/svg" xmlns:xlink="http://www.w3.org/1999/xlink"><g id="video_card_1_"><g><g><g><path d="M27.5,24h-24C3.224,24,3,23.776,3,23.5v-18C3,5.224,3.224,5,3.5,5h24c0.146,0,0.284,0.063,0.38,0.175      l3,3.5C30.957,8.766,31,8.881,31,9v11c0,0.119-0.043,0.234-0.12,0.325l-3,3.5C27.784,23.937,27.646,24,27.5,24z M4,23h23.271      L30,19.815V9.185L27.271,6H4V23z" fill="#263238"/></g></g></g><g><g><g><g><g><g><path d="M21.001,22c-4.136,0-7.501-3.364-7.501-7.5S16.865,7,21.001,7c4.135,0,7.499,3.364,7.499,7.5         S25.136,22,21.001,22z M21.001,8c-3.585,0-6.501,2.916-6.501,6.5s2.916,6.5,6.501,6.5c3.584,0,6.499-2.916,6.499-6.5         S24.585,8,21.001,8z" fill="#263238"/></g></g></g></g></g><g><g><g><g><path d="M15.551,19.45h1c0-1.869,1.263-2.881,2.898-3.7c-0.209-0.259-0.355-0.566-0.415-0.908        C17.173,15.776,15.55,17.043,15.551,19.45z" fill="#263238"/><path d="M26.449,9.55h-1c0,1.869-1.263,2.881-2.898,3.7c0.209,0.259,0.355,0.566,0.415,0.908        C24.827,13.224,26.45,11.957,26.449,9.55z" fill="#263238"/><path d="M25.244,16.147c1.096,0,2.156-0.341,3.109-1.294l-0.707-0.707c-1.321,1.321-2.93,1.143-4.668,0.566        c-0.037,0.345-0.154,0.665-0.344,0.935C23.504,15.936,24.385,16.147,25.244,16.147z" fill="#263238"/><path d="M13.646,14.146l0.707,0.707c1.321-1.321,2.93-1.144,4.668-0.566c0.037-0.346,0.154-0.666,0.345-0.936        C17.39,12.696,15.348,12.445,13.646,14.146z" fill="#263238"/><path d="M16.05,9.051v1c1.869,0,2.881,1.263,3.7,2.898c0.259-0.209,0.566-0.355,0.908-0.415        C19.724,10.673,18.457,9.051,16.05,9.051z" fill="#263238"/><path d="M22.25,16.051c-0.259,0.209-0.566,0.355-0.908,0.415c0.935,1.861,2.201,3.483,4.608,3.483v-1        C24.081,18.949,23.069,17.687,22.25,16.051z" fill="#263238"/><path d="M21.354,7.146l-0.707,0.707c1.321,1.321,1.144,2.931,0.566,4.668c0.346,0.037,0.666,0.154,0.936,0.345        C22.805,10.89,23.056,8.849,21.354,7.146z" fill="#263238"/><path d="M20.646,21.854l0.707-0.707c-1.321-1.321-1.144-2.931-0.566-4.668        c-0.346-0.037-0.666-0.154-0.936-0.345C19.195,18.11,18.944,20.151,20.646,21.854z" fill="#263238"/></g><g><g><path d="M21.001,17c-1.379,0-2.501-1.121-2.501-2.5s1.122-2.5,2.501-2.5c1.378,0,2.499,1.121,2.499,2.5         S22.379,17,21.001,17z M21.001,13c-0.827,0-1.501,0.673-1.501,1.5s0.674,1.5,1.501,1.5c0.826,0,1.499-0.673,1.499-1.5         S21.827,13,21.001,13z" fill="#263238"/></g></g></g></g></g></g><g><g><g><path d="M3,28.5V6H1.5C1.224,6,1,5.776,1,5.5S1.224,5,1.5,5H4v23.5C4,28.776,3.776,29,3.5,29l0,0      C3.224,29,3,28.776,3,28.5z" fill="#263238"/></g></g></g><g><g><g><path d="M3.5,22h-2C1.224,22,1,21.776,1,21.5v-5C1,16.224,1.224,16,1.5,16h2C3.776,16,4,16.224,4,16.5v5      C4,21.776,3.776,22,3.5,22z M2,21h1v-4H2V21z" fill="#263238"/></g></g></g><g><g><g><path d="M3.5,12h-2C1.224,12,1,11.776,1,11.5v-3C1,8.224,1.224,8,1.5,8h2C3.776,8,4,8.224,4,8.5v3      C4,11.776,3.776,12,3.5,12z M2,11h1V9H2V11z" fill="#263238"/></g></g></g><g><g><g><path d="M1.5,24H3H1.5z" fill="#263238"/></g></g><g><g><path d="M3,24H1.5C1.224,24,1,23.776,1,23.5S1.224,23,1.5,23H3c0.276,0,0.5,0.224,0.5,0.5S3.276,24,3,24z" fill="#263238"/></g></g></g><g><g><g><path d="M3,15H1.5C1.224,15,1,14.776,1,14.5S1.224,14,1.5,14H3c0.276,0,0.5,0.224,0.5,0.5S3.276,15,3,15z" fill="#263238"/></g></g></g><g><g><g><g><path d="M25.5,27h-12c-0.276,0-0.5-0.224-0.5-0.5v-3c0-0.276,0.224-0.5,0.5-0.5h12c0.276,0,0.5,0.224,0.5,0.5v3       C26,26.776,25.776,27,25.5,27z M14,26h11v-2H14V26z" fill="#263238"/></g></g></g><g><g><g><path d="M11.5,27h-4C7.224,27,7,26.776,7,26.5v-3C7,23.224,7.224,23,7.5,23h4c0.276,0,0.5,0.224,0.5,0.5v3       C12,26.776,11.776,27,11.5,27z M8,26h3v-2H8V26z" fill="#263238"/></g></g></g><g><g><g><path d="M23,25.5v1V25.5z" fill="#263238"/></g></g><g><g><path d="M23.5,27c-0.276,0-0.5-0.224-0.5-0.5v-1c0-0.276,0.224-0.5,0.5-0.5s0.5,0.224,0.5,0.5v1       C24,26.776,23.776,27,23.5,27z" fill="#263238"/></g></g></g><g><g><g><path d="M21,25.5v1V25.5z" fill="#263238"/></g></g><g><g><path d="M21.5,27c-0.276,0-0.5-0.224-0.5-0.5v-1c0-0.276,0.224-0.5,0.5-0.5s0.5,0.224,0.5,0.5v1       C22,26.776,21.776,27,21.5,27z" fill="#263238"/></g></g></g><g><g><g><path d="M19,25.5v1V25.5z" fill="#263238"/></g></g><g><g><path d="M19.5,27c-0.276,0-0.5-0.224-0.5-0.5v-1c0-0.276,0.224-0.5,0.5-0.5s0.5,0.224,0.5,0.5v1       C20,26.776,19.776,27,19.5,27z" fill="#263238"/></g></g></g><g><g><g><path d="M17,25.5v1V25.5z" fill="#263238"/></g></g><g><g><path d="M17.5,27c-0.276,0-0.5-0.224-0.5-0.5v-1c0-0.276,0.224-0.5,0.5-0.5s0.5,0.224,0.5,0.5v1       C18,26.776,17.776,27,17.5,27z" fill="#263238"/></g></g></g><g><g><g><path d="M15,25.5v1V25.5z" fill="#263238"/></g></g><g><g><path d="M15.5,27c-0.276,0-0.5-0.224-0.5-0.5v-1c0-0.276,0.224-0.5,0.5-0.5s0.5,0.224,0.5,0.5v1       C16,26.776,15.776,27,15.5,27z" fill="#263238"/></g></g></g><g><g><g><path d="M9,25.5v1V25.5z" fill="#263238"/></g></g><g><g><path d="M9.5,27C9.224,27,9,26.776,9,26.5v-1C9,25.224,9.224,25,9.5,25s0.5,0.224,0.5,0.5v1       C10,26.776,9.776,27,9.5,27z" fill="#263238"/></g></g></g></g><g><g><g><g><g><path d="M4.5,22h-1C3.224,22,3,21.776,3,21.5S3.224,21,3.5,21h1C4.776,21,5,21.224,5,21.5S4.776,22,4.5,22z" fill="#263238"/></g></g></g></g><g><g><g><g><path d="M4.5,20h-1C3.224,20,3,19.776,3,19.5S3.224,19,3.5,19h1C4.776,19,5,19.224,5,19.5S4.776,20,4.5,20z" fill="#263238"/></g></g></g></g><g><g><g><g><path d="M4.5,18h-1C3.224,18,3,17.776,3,17.5S3.224,17,3.5,17h1C4.776,17,5,17.224,5,17.5S4.776,18,4.5,18z" fill="#263238"/></g></g></g></g><g><g><g><g><path d="M4.5,16h-1C3.224,16,3,15.776,3,15.5S3.224,15,3.5,15h1C4.776,15,5,15.224,5,15.5S4.776,16,4.5,16z" fill="#263238"/></g></g></g></g><g><g><g><g><path d="M4.5,14h-1C3.224,14,3,13.776,3,13.5S3.224,13,3.5,13h1C4.776,13,5,13.224,5,13.5S4.776,14,4.5,14z" fill="#263238"/></g></g></g></g><g><g><g><g><path d="M4.5,12h-1C3.224,12,3,11.776,3,11.5S3.224,11,3.5,11h1C4.776,11,5,11.224,5,11.5S4.776,12,4.5,12z" fill="#263238"/></g></g></g></g><g><g><g><g><path d="M4.5,10h-1C3.224,10,3,9.776,3,9.5S3.224,9,3.5,9h1C4.776,9,5,9.224,5,9.5S4.776,10,4.5,10z" fill="#263238"/></g></g></g></g><g><g><g><g><path d="M4.5,8h-1C3.224,8,3,7.776,3,7.5S3.224,7,3.5,7h1C4.776,7,5,7.224,5,7.5S4.776,8,4.5,8z" fill="#263238"/></g></g></g></g></g><g><g><g><path d="M10.5,21h-2C8.224,21,8,20.776,8,20.5v-4C8,16.224,8.224,16,8.5,16h2c0.276,0,0.5,0.224,0.5,0.5v4      C11,20.776,10.776,21,10.5,21z M9,20h1v-3H9V20z" fill="#263238"/></g></g></g><g><g><g><path d="M10.5,14h-2C8.224,14,8,13.776,8,13.5v-5C8,8.224,8.224,8,8.5,8h2C10.776,8,11,8.224,11,8.5v5      C11,13.776,10.776,14,10.5,14z M9,13h1V9H9V13z" fill="#263238"/></g></g></g></g></svg>