<svg width="35" height="35" viewBox="0 0 35 35" fill="none" xmlns="http://www.w3.org/2000/svg">
<path d="M32.7792 14.1749C32.2329 13.7161 31.553 13.1451 31.4371 12.7715C31.3081 12.357 31.5418 11.4452 31.7297 10.7126C32.0682 9.39254 32.4517 7.89637 31.6577 6.7572C30.8569 5.60826 29.367 5.52847 28.0524 5.45802C27.3332 5.41951 26.4384 5.3716 26.1112 5.12311C25.7936 4.8817 25.4782 4.01641 25.2246 3.32121C24.753 2.0274 24.2182 0.561026 22.9086 0.117078C21.6431 -0.31207 20.4114 0.523604 19.3246 1.26101C18.6737 1.70245 17.9361 2.20275 17.5 2.20275C17.0639 2.20275 16.3264 1.70245 15.6757 1.26101C14.5886 0.523795 13.3567 -0.312357 12.0916 0.117078C10.782 0.561026 10.2473 2.02742 9.77562 3.32112C9.52211 4.01631 9.20662 4.88161 8.889 5.12292C8.5619 5.37151 7.66708 5.41943 6.94779 5.45792C5.63322 5.52837 4.1433 5.60817 3.34244 6.75711C2.54848 7.8963 2.932 9.39238 3.27047 10.7124C3.45833 11.4451 3.69208 12.3569 3.56323 12.7714C3.44716 13.1449 2.76738 13.7159 2.22111 14.1748C1.17998 15.0493 0 16.0405 0 17.5C0 18.9596 1.17998 19.9508 2.22111 20.8253C2.76738 21.2841 3.44716 21.8552 3.56323 22.2287C3.69208 22.643 3.45833 23.5549 3.27047 24.2876C2.932 25.6076 2.54839 27.1037 3.34226 28.2428C4.14312 29.3919 5.63325 29.4717 6.94779 29.5421C7.66682 29.5806 8.56165 29.6286 8.88876 29.877C9.20637 30.1184 9.52185 30.9837 9.77536 31.6789C10.2471 32.9727 10.7818 34.439 12.0914 34.8831C13.3563 35.3119 14.5884 34.4764 15.6754 33.7391C16.3263 33.2977 17.0639 32.7974 17.5 32.7974C17.936 32.7974 18.6736 33.2977 19.3246 33.7391C20.2064 34.3373 21.1834 35 22.1963 35C22.4382 35.0006 22.6785 34.9611 22.9085 34.8831C24.2182 34.4391 24.7529 32.9727 25.2245 31.679C25.4781 30.9837 25.7935 30.1185 26.1111 29.8771C26.4383 29.6286 27.3331 29.5807 28.0521 29.5422C29.3667 29.4718 30.8568 29.392 31.6577 28.243C32.4516 27.104 32.0679 25.6079 31.7296 24.2879C31.5417 23.5551 31.308 22.6433 31.437 22.2287C31.5529 21.8552 32.2328 21.2841 32.7791 20.8253C33.82 19.9508 35 18.9596 35 17.5C35 16.0405 33.8201 15.0494 32.7792 14.1749ZM15.107 22.7119C15.0395 22.9202 14.9112 23.1013 14.74 23.2295C14.5689 23.3578 14.3635 23.4267 14.1529 23.4267H12.9385C12.7284 23.4267 12.5236 23.3582 12.3526 23.2305C12.1817 23.1029 12.0534 22.9227 11.9855 22.715L8.91237 13.324H11.041L13.5439 20.9721L16.0209 13.324H18.1473L15.107 22.7119ZM22.8462 23.4267H19.0118V21.3232H22.8461C23.129 21.3232 23.4002 21.2059 23.6003 20.9971C23.8003 20.7882 23.9126 20.505 23.9126 20.2096C23.9126 19.9143 23.8003 19.631 23.6003 19.4222C23.4002 19.2134 23.129 19.096 22.8461 19.096H22.0058C21.2483 19.096 20.5218 18.7818 19.9862 18.2225C19.4505 17.6632 19.1496 16.9046 19.1496 16.1136C19.1496 15.3227 19.4505 14.5641 19.9862 14.0048C20.5218 13.4455 21.2483 13.1313 22.0058 13.1313H25.8343V15.2347H22.0058C21.7825 15.2347 21.5684 15.3273 21.4106 15.4922C21.2527 15.657 21.1641 15.8805 21.1641 16.1136C21.1641 16.3467 21.2527 16.5703 21.4106 16.7351C21.5684 16.9 21.7825 16.9926 22.0058 16.9926H22.8461C23.6633 16.9926 24.4469 17.3315 25.0247 17.9348C25.6025 18.5381 25.9271 19.3564 25.9271 20.2096C25.9271 21.0629 25.6025 21.8811 25.0247 22.4845C24.4469 23.0878 23.6633 23.4267 22.8462 23.4267Z" fill="#888888"/>
</svg>
